<svg xmlns="http://www.w3.org/2000/svg" viewBox="-5 -20 250 250">
  <defs>
    <linearGradient id="cg" x1="0%" y1="0%" x2="0%" y2="100%">
      <stop offset="0%" stop-color="#c084fc"/>
      <stop offset="100%" stop-color="#7c3aed"/>
    </linearGradient>
  </defs>
  <g fill="url(#cg)">
    <!-- ========== CROWN BAND ========== -->
    <rect x="30" y="98" width="180" height="20" rx="3"/>

    <!-- ========== LEFT SCROLL ========== -->
    <path d="
      M30 98
      C20 88, 8 72, 14 52
      C18 40, 26 36, 32 42
      C24 56, 28 74, 34 90
      Z
    "/>
    <!-- scroll tip curl -->
    <path d="
      M14 52
      C10 40, 14 28, 22 22
      C28 18, 32 22, 28 30
      C24 38, 18 44, 14 52
      Z
    "/>

    <!-- ========== LEFT FLEUR-DE-LIS ========== -->
    <path d="M72 98 L66 52 C63 30, 68 14, 76 4 C80 -2, 84 -2, 88 4 C96 14, 101 30, 98 52 L92 98Z"/>
    <circle cx="82" cy="-4" r="6"/>
    <!-- left petal -->
    <path d="M63 40 C55 28, 58 14, 66 8 C68 12, 64 24, 66 34Z"/>
    <!-- right petal -->
    <path d="M101 40 C109 28, 106 14, 98 8 C96 12, 100 24, 98 34Z"/>

    <!-- ========== CENTER FLEUR-DE-LIS (tallest) ========== -->
    <path d="M110 98 L104 40 C101 16, 108 -2, 116 -14 C120 -20, 124 -20, 128 -14 C136 -2, 143 16, 140 40 L134 98Z"/>
    <circle cx="122" cy="-18" r="7"/>
    <!-- left petal -->
    <path d="M100 28 C90 14, 94 -2, 104 -8 C106 -4, 101 10, 103 22Z"/>
    <!-- right petal -->
    <path d="M144 28 C154 14, 150 -2, 140 -8 C138 -4, 143 10, 141 22Z"/>

    <!-- ========== RIGHT FLEUR-DE-LIS ========== -->
    <path d="M148 98 L142 52 C139 30, 144 14, 152 4 C156 -2, 160 -2, 164 4 C172 14, 177 30, 174 52 L168 98Z"/>
    <circle cx="158" cy="-4" r="6"/>
    <!-- left petal -->
    <path d="M139 40 C131 28, 134 14, 142 8 C144 12, 140 24, 142 34Z"/>
    <!-- right petal -->
    <path d="M177 40 C185 28, 182 14, 174 8 C172 12, 176 24, 174 34Z"/>

    <!-- ========== RIGHT SCROLL ========== -->
    <path d="
      M210 98
      C220 88, 232 72, 226 52
      C222 40, 214 36, 208 42
      C216 56, 212 74, 206 90
      Z
    "/>
    <!-- scroll tip curl -->
    <path d="
      M226 52
      C230 40, 226 28, 218 22
      C212 18, 208 22, 212 30
      C216 38, 222 44, 226 52
      Z
    "/>

    <!-- ========== DRIPS ========== -->
    <path d="M55 118 Q54 142 53 154 Q52.5 160 55 160 Q57.5 160 57 154 Q56 142 56 118Z"/>
    <ellipse cx="55" cy="162" rx="3" ry="3.5"/>

    <path d="M88 118 Q87 150 86 166 Q85.5 174 88 174 Q90.5 174 90 166 Q89 150 89 118Z"/>
    <ellipse cx="88" cy="176" rx="3.2" ry="4"/>

    <path d="M122 118 Q121 156 120 178 Q119.5 188 122 188 Q124.5 188 124 178 Q123 156 123 118Z"/>
    <ellipse cx="122" cy="190" rx="3.5" ry="4.5"/>

    <path d="M155 118 Q154 148 153 162 Q152.5 170 155 170 Q157.5 170 157 162 Q156 148 156 118Z"/>
    <ellipse cx="155" cy="172" rx="3.2" ry="4"/>

    <path d="M185 118 Q184 138 183.5 148 Q183 154 185 154 Q187 154 186.5 148 Q186 138 186 118Z"/>
    <ellipse cx="185" cy="156" rx="3" ry="3.5"/>
  </g>
</svg>
